HIERARCHY
ROOT Pelvis
{
	OFFSET 0.000000 0.000000 0.000000
	CHANNELS 6 Xposition Yposition Zposition Xrotation Yrotation Zrotation
	JOINT LeftUpLeg_virtual
	{
		OFFSET 0.000000 0.000000 0.000000
		CHANNELS 3 Xrotation Yrotation Zrotation
		JOINT LeftUpLeg
		{
			OFFSET 8.479700 -4.795502 -0.379100
			CHANNELS 3 Xrotation Yrotation Zrotation
			JOINT LeftLeg
			{
				OFFSET 0.024144 -32.555107 0.112900
				CHANNELS 3 Xrotation Yrotation Zrotation
				JOINT LeftFoot
				{
					OFFSET -0.024144 -32.638630 -3.012600
					CHANNELS 3 Xrotation Yrotation Zrotation
					JOINT LeftToeBase
					{
						OFFSET 0.970200 -13.225400 11.864200
						CHANNELS 3 Xrotation Yrotation Zrotation
						End Site
						{
							OFFSET 0 0 0
						}
					}
				}
			}
		}
	}
	JOINT RightUpLeg_virtual
	{
		OFFSET 0.000000 0.000000 0.000000
		CHANNELS 3 Xrotation Yrotation Zrotation
		JOINT RightUpLeg
		{
			OFFSET -8.479700 -4.795502 -0.379100
			CHANNELS 3 Xrotation Yrotation Zrotation
			JOINT RightLeg
			{
				OFFSET -0.023144 -32.555092 0.112900
				CHANNELS 3 Xrotation Yrotation Zrotation
				JOINT RightFoot
				{
					OFFSET 0.023144 -32.638641 -3.012700
					CHANNELS 3 Xrotation Yrotation Zrotation
					JOINT RightToeBase
					{
						OFFSET -0.970200 -13.225400 11.864200
						CHANNELS 3 Xrotation Yrotation Zrotation
						End Site
						{
							OFFSET 0 0 0
						}
					}
				}
			}
		}
	}
	JOINT Hips_virtual
	{
		OFFSET 0.000000 0.000000 0.000000
		CHANNELS 3 Xrotation Yrotation Zrotation
		JOINT Hips
		{
			OFFSET -0.000000 -0.000000 -0.000000
			CHANNELS 3 Xrotation Yrotation Zrotation
			JOINT Spine
			{
				OFFSET 0.000000 7.722000 1.166200
				CHANNELS 3 Xrotation Yrotation Zrotation
				JOINT Spine1
				{
					OFFSET 0.000000 12.024101 0.248800
					CHANNELS 3 Xrotation Yrotation Zrotation
					JOINT Spine2
					{
						OFFSET 0.000000 11.502998 -0.491200
						CHANNELS 3 Xrotation Yrotation Zrotation
						JOINT Neck_virtual
						{
							OFFSET 0.000000 0.000000 0.000000
							CHANNELS 3 Xrotation Yrotation Zrotation
							JOINT Neck
							{
								OFFSET 0.000000 18.430702 -3.123100
								CHANNELS 3 Xrotation Yrotation Zrotation
								JOINT Head
								{
									OFFSET 0.000000 9.051102 1.034000
									CHANNELS 3 Xrotation Yrotation Zrotation
									End Site
									{
										OFFSET 0 0 0
									}
								}
							}
						}
						JOINT LeftShoulder_virtual
						{
							OFFSET 0.000000 0.000000 0.000000
							CHANNELS 3 Xrotation Yrotation Zrotation
							JOINT LeftShoulder
							{
								OFFSET 6.197800 13.665199 -4.064700
								CHANNELS 3 Xrotation Yrotation Zrotation
								JOINT LeftArm
								{
									OFFSET 7.778100 -0.187103 -1.709300
									CHANNELS 3 Xrotation Yrotation Zrotation
									JOINT LeftForeArm
									{
										OFFSET 22.049376 0.000000 0.000000
										CHANNELS 3 Xrotation Yrotation Zrotation
										JOINT LeftHand
										{
											OFFSET 23.009392 0.000000 0.000000
											CHANNELS 3 Xrotation Yrotation Zrotation
											End Site
											{
												OFFSET 0 0 0
											}
										}
									}
								}
							}
						}
						JOINT RightShoulder_virtual
						{
							OFFSET 0.000000 0.000000 0.000000
							CHANNELS 3 Xrotation Yrotation Zrotation
							JOINT RightShoulder
							{
								OFFSET -6.197800 13.665199 -4.064700
								CHANNELS 3 Xrotation Yrotation Zrotation
								JOINT RightArm
								{
									OFFSET -7.778100 -0.187103 -1.709300
									CHANNELS 3 Xrotation Yrotation Zrotation
									JOINT RightForeArm
									{
										OFFSET -22.049376 0.000000 0.000000
										CHANNELS 3 Xrotation Yrotation Zrotation
										JOINT RightHand
										{
											OFFSET -23.009392 0.000000 0.000000
											CHANNELS 3 Xrotation Yrotation Zrotation
											End Site
											{
												OFFSET 0 0 0
											}
										}
									}
								}
							}
						}
					}
				}
			}
		}
	}
}
MOTION
Frames: 11
Frame Time: 0.03333333
-0.851549 48.615486 0.526489 0.000000 0.000000 0.000000 -179.443946 -4.293831 171.074942 -80.697449 -12.427268 14.211452 115.787471 8.176350 3.475657 -31.854800 4.297269 -12.746409 0.000000 0.000000 0.000000 -179.443946 -4.293831 171.074942 -61.408455 11.126175 -24.532566 105.917526 0.234133 -0.847285 -26.508294 -8.056282 27.125053 0.000000 0.000000 0.000000 -179.443946 -4.293831 171.074942 0.000000 -0.000001 0.000000 4.046923 3.598078 -2.211930 8.251964 6.771409 -4.731506 0.000000 0.000000 0.000000 8.251959 6.771408 -4.731513 -1.987041 28.311168 6.773753 0.000000 0.000000 0.000000 8.251959 6.771408 -4.731513 1.033495 -15.235092 -11.647762 3.042445 -0.761212 -32.016361 40.133560 -33.388198 -1.908175 0.000000 0.000000 0.000000 8.251959 6.771408 -4.731513 3.185205 -18.297167 12.806539 12.807458 -13.875004 59.330520 29.940800 40.956891 -3.738876 0.000000 0.000000 0.000000 
-0.854410 48.615601 0.520178 0.000000 0.000000 0.000000 -179.466526 -4.289836 171.073112 -80.715112 -12.426375 14.207174 115.790039 8.176305 3.475577 -31.862703 4.299279 -12.746587 0.000000 0.000000 0.000000 -179.466526 -4.289836 171.073112 -61.427764 11.121612 -24.548434 105.918250 0.232914 -0.847415 -26.512033 -8.046146 27.103123 0.000000 0.000000 0.000000 -179.466526 -4.289836 171.073112 0.000000 0.000000 0.000000 4.041694 3.595730 -2.211389 8.241337 6.766913 -4.730122 0.000000 0.000000 0.000000 8.241345 6.766908 -4.730119 -1.988031 28.342468 6.708602 0.000000 0.000000 0.000000 8.241345 6.766908 -4.730119 1.032237 -15.314488 -11.643144 3.086107 -0.688674 -32.029462 40.144560 -33.392648 -1.914899 0.000000 0.000000 0.000000 8.241345 6.766908 -4.730119 3.178411 -18.230241 12.777574 12.845287 -13.905120 59.356687 29.929404 40.938692 -3.736779 0.000000 0.000000 0.000000 
-0.860427 48.616173 0.513699 0.000000 0.000000 0.000000 -179.483902 -4.299879 171.071978 -80.732597 -12.415599 14.201484 115.792252 8.176081 3.475495 -31.871039 4.294729 -12.735759 0.000000 0.000000 0.000000 -179.483902 -4.299879 171.071978 -61.426876 11.110748 -24.566059 105.918284 0.229685 -0.847804 -26.533555 -8.046076 27.091728 0.000000 0.000000 0.000000 -179.483902 -4.299879 171.071978 0.000000 0.000000 -0.000001 4.038583 3.593369 -2.210831 8.234949 6.762118 -4.728768 0.000000 0.000000 0.000000 8.234952 6.762117 -4.728762 -1.961544 28.352938 6.666017 0.000000 0.000000 0.000000 8.234952 6.762117 -4.728762 1.018267 -15.384832 -11.671198 3.130074 -0.613956 -31.998436 40.157056 -33.422431 -1.934991 0.000000 0.000000 0.000000 8.234952 6.762117 -4.728762 3.169452 -18.205173 12.731747 12.862355 -13.921448 59.407667 29.931043 40.882353 -3.744463 0.000000 0.000000 0.000000 
-0.865752 48.616943 0.506777 0.000000 0.000000 0.000000 -179.501128 -4.308893 171.070817 -80.746981 -12.404189 14.196427 115.795721 8.176754 3.475141 -31.883282 4.290386 -12.725598 0.000000 0.000000 0.000000 -179.501128 -4.308893 171.070817 -61.426316 11.101414 -24.581793 105.918359 0.225768 -0.847826 -26.552359 -8.046330 27.082516 0.000000 0.000000 0.000000 -179.501128 -4.308893 171.070817 0.000000 0.000000 0.000000 4.034731 3.592262 -2.208526 8.227047 6.760016 -4.723983 0.000000 0.000000 0.000000 8.227047 6.760017 -4.723988 -1.937310 28.365921 6.632016 0.000000 0.000000 0.000000 8.227047 6.760017 -4.723988 1.010117 -15.419005 -11.688380 3.153025 -0.589277 -31.984625 40.162629 -33.418077 -1.949331 0.000000 0.000000 0.000000 8.227047 6.760017 -4.723988 3.165850 -18.194350 12.713012 12.873442 -13.941528 59.432686 29.941493 40.850955 -3.760545 0.000000 0.000000 0.000000 
-0.873795 48.616257 0.500370 0.000000 0.000000 0.000000 -179.515745 -4.326352 171.062675 -80.764692 -12.397773 14.190925 115.803972 8.175444 3.473605 -31.896973 4.281318 -12.709677 0.000000 0.000000 0.000000 -179.515745 -4.326352 171.062675 -61.419616 11.080717 -24.613246 105.914528 0.246624 -0.854182 -26.562020 -8.044108 27.073690 0.000000 0.000000 0.000000 -179.515745 -4.326352 171.062675 0.000000 0.000000 0.000000 4.031536 3.593786 -2.201781 8.220303 6.763312 -4.710180 0.000000 0.000000 0.000000 8.220295 6.763312 -4.710182 -1.801248 28.372377 6.520776 0.000000 0.000000 0.000000 8.220295 6.763312 -4.710182 0.975625 -15.461788 -11.770697 3.170438 -0.536183 -31.902219 40.187590 -33.467012 -1.974914 0.000000 0.000000 0.000000 8.220295 6.763312 -4.710182 3.159102 -18.210492 12.673944 12.884380 -13.954247 59.461632 29.974593 40.815875 -3.790424 0.000000 0.000000 0.000000 
-0.882328 48.614403 0.495220 0.000000 0.000000 0.000000 -179.531017 -4.341207 171.054875 -80.787655 -12.389646 14.174015 115.813944 8.181563 3.473158 -31.908182 4.274301 -12.694935 0.000000 0.000000 0.000000 -179.531017 -4.341207 171.054875 -61.415449 11.066488 -24.637068 105.911188 0.266511 -0.860148 -26.569794 -8.045749 27.073482 0.000000 0.000000 0.000000 -179.531017 -4.341207 171.054875 0.000000 0.000000 -0.000001 4.028363 3.596194 -2.195250 8.213659 6.768405 -4.696763 0.000000 0.000000 0.000000 8.213664 6.768408 -4.696763 -1.618096 28.373296 6.413426 0.000000 0.000000 0.000000 8.213664 6.768408 -4.696763 0.947784 -15.491045 -11.837457 3.180744 -0.501372 -31.841078 40.206366 -33.506733 -1.985165 0.000000 0.000000 0.000000 8.213664 6.768408 -4.696763 3.153304 -18.242488 12.623373 12.879877 -13.945178 59.502265 29.994793 40.758621 -3.807628 0.000000 0.000000 0.000000 
-0.890863 48.614967 0.491732 0.000000 0.000000 0.000000 -179.553447 -4.349879 171.042567 -80.815126 -12.386740 14.156771 115.818712 8.188997 3.473633 -31.915527 4.268919 -12.683158 0.000000 0.000000 0.000000 -179.553447 -4.349879 171.042567 -61.414964 11.074042 -24.629129 105.895772 0.267642 -0.863201 -26.556057 -8.056982 27.103073 0.000000 0.000000 0.000000 -179.553447 -4.349879 171.042567 -0.000000 0.000001 0.000001 4.024838 3.598955 -2.192430 8.206556 6.774016 -4.690942 0.000000 0.000000 0.000000 8.206564 6.774012 -4.690938 -1.458890 28.369589 6.337058 0.000000 0.000000 0.000000 8.206564 6.774012 -4.690938 0.930192 -15.547228 -11.875400 3.208561 -0.438951 -31.791915 40.215983 -33.561723 -1.999921 0.000000 0.000000 0.000000 8.206564 6.774012 -4.690938 3.154702 -18.236556 12.562897 12.873503 -13.925039 59.585286 29.979517 40.631566 -3.804622 0.000000 0.000000 0.000000 
-0.896000 48.616234 0.488045 0.000000 0.000000 0.000000 -179.579238 -4.357107 171.036010 -80.839872 -12.394944 14.138951 115.817387 8.188528 3.474024 -31.915930 4.269531 -12.684514 0.000000 0.000000 0.000000 -179.579238 -4.357107 171.036010 -61.416364 11.083731 -24.611557 105.887412 0.253189 -0.866406 -26.552770 -8.074726 27.140633 0.000000 0.000000 0.000000 -179.579238 -4.357107 171.036010 0.000000 0.000000 0.000000 4.019401 3.600965 -2.192503 8.195728 6.778062 -4.690541 0.000000 0.000000 0.000000 8.195739 6.778062 -4.690538 -1.408026 28.373238 6.338772 0.000000 0.000000 0.000000 8.195739 6.778062 -4.690538 0.944791 -15.597430 -11.833585 3.226639 -0.421161 -31.850886 40.201223 -33.524447 -1.984795 0.000000 0.000000 0.000000 8.195739 6.778062 -4.690538 3.158145 -18.204793 12.548418 12.877613 -13.932154 59.626609 29.968476 40.546776 -3.801250 0.000000 0.000000 0.000000 
-0.903411 48.618507 0.488297 0.000000 0.000000 0.000000 -179.608034 -4.372572 171.017323 -80.876195 -12.407560 14.108154 115.816349 8.188965 3.474299 -31.913892 4.264940 -12.674779 0.000000 0.000000 0.000000 -179.608034 -4.372572 171.017323 -61.422109 11.077153 -24.598165 105.872652 0.230735 -0.869286 -26.540954 -8.082432 27.171257 0.000000 0.000000 0.000000 -179.608034 -4.372572 171.017323 0.000000 0.000000 -0.000001 4.012524 3.604780 -2.187987 8.181888 6.785771 -4.681521 0.000000 0.000000 0.000000 8.181896 6.785763 -4.681524 -1.290443 28.367225 6.327699 0.000000 0.000000 0.000000 8.181896 6.785763 -4.681524 0.945022 -15.669916 -11.825179 3.254921 -0.375907 -31.886820 40.182925 -33.520366 -1.973809 0.000000 0.000000 0.000000 8.181896 6.785763 -4.681524 3.170863 -18.197716 12.473215 12.861519 -13.898433 59.724602 29.919910 40.385771 -3.765821 0.000000 0.000000 0.000000 
-0.907372 48.617943 0.488623 0.000000 0.000000 0.000000 -179.632363 -4.395992 170.997488 -80.912839 -12.426371 14.095513 115.819900 8.168852 3.473066 -31.912560 4.254422 -12.658161 0.000000 0.000000 0.000000 -179.632363 -4.395992 170.997488 -61.427764 11.065113 -24.590694 105.865910 0.213055 -0.871302 -26.534325 -8.089956 27.193305 0.000000 0.000000 0.000000 -179.632363 -4.395992 170.997488 0.000000 0.000000 0.000002 4.009266 3.608888 -2.182057 8.175241 6.793757 -4.670112 0.000000 0.000000 0.000000 8.175239 6.793751 -4.670115 -1.242941 28.366549 6.353363 0.000000 0.000000 0.000000 8.175239 6.793751 -4.670115 0.940509 -15.674478 -11.836118 3.254328 -0.393788 -31.885744 40.185971 -33.531243 -1.959173 0.000000 0.000000 0.000000 8.175239 6.793751 -4.670115 3.182901 -18.251367 12.408412 12.835017 -13.813487 59.779783 29.933434 40.260844 -3.747733 0.000000 0.000000 0.000000 
-0.911945 48.616737 0.491110 0.000000 0.000000 0.000000 -179.665039 -4.423962 170.969744 -80.969488 -12.446889 14.075162 115.823589 8.159689 3.472649 -31.901669 4.243713 -12.638468 0.000000 0.000000 0.000000 -179.665039 -4.423962 170.969744 -61.432613 11.047363 -24.577211 105.861696 0.178576 -0.873710 -26.531130 -8.099190 27.223143 0.000000 0.000000 0.000000 -179.665039 -4.423962 170.969744 0.000000 0.000000 0.000000 4.006297 3.614184 -2.173792 8.169120 6.803911 -4.654316 0.000000 0.000000 0.000000 8.169117 6.803910 -4.654318 -1.170655 28.366100 6.327246 0.000000 0.000000 0.000000 8.169117 6.803910 -4.654318 0.937812 -15.705071 -11.839545 3.261954 -0.412974 -31.885492 40.180709 -33.548475 -1.970410 0.000000 0.000000 0.000000 8.169117 6.803910 -4.654318 3.189022 -18.288696 12.343031 12.826498 -13.747170 59.856021 29.959180 40.127939 -3.775952 0.000000 0.000000 0.000000 
